<svg width="27" height="27" viewBox="0 0 27 27" fill="none" xmlns="http://www.w3.org/2000/svg">
<path d="M13.5 27C10.83 27 8.21987 26.2082 5.99981 24.7248C3.77974 23.2414 2.04941 21.133 1.02763 18.6662C0.00584927 16.1994 -0.261496 13.485 0.259405 10.8663C0.780305 8.24754 2.06605 5.84207 3.95406 3.95406C5.84207 2.06605 8.24754 0.780305 10.8663 0.259405C13.485 -0.261496 16.1994 0.00584927 18.6662 1.02763C21.133 2.04941 23.2414 3.77974 24.7248 5.99981C26.2082 8.21987 27 10.83 27 13.5C27 17.0804 25.5777 20.5142 23.0459 23.0459C20.5142 25.5777 17.0804 27 13.5 27ZM13.5 2.25001C11.275 2.25001 9.09989 2.90981 7.24984 4.14597C5.39979 5.38214 3.95785 7.13915 3.10636 9.19482C2.25487 11.2505 2.03209 13.5125 2.46617 15.6948C2.90025 17.8771 3.97171 19.8816 5.54505 21.455C7.11839 23.0283 9.12295 24.0998 11.3052 24.5338C13.4875 24.9679 15.7495 24.7451 17.8052 23.8936C19.8609 23.0422 21.6179 21.6002 22.854 19.7502C24.0902 17.9001 24.75 15.725 24.75 13.5C24.75 10.5163 23.5647 7.65484 21.455 5.54505C19.3452 3.43527 16.4837 2.25001 13.5 2.25001Z" fill="#522A12"/>
<path d="M13.5004 20.25C13.2457 20.246 13.0024 20.1245 12.8222 19.9112C12.6421 19.6979 12.5395 19.4097 12.5361 19.1081V6.92762C12.5361 6.62477 12.6377 6.33432 12.8186 6.12017C12.9994 5.90601 13.2447 5.78571 13.5004 5.78571C13.7562 5.78571 14.0014 5.90601 14.1823 6.12017C14.3631 6.33432 14.4647 6.62477 14.4647 6.92762V19.1081C14.4614 19.4097 14.3587 19.6979 14.1786 19.9112C13.9985 20.1245 13.7551 20.246 13.5004 20.25Z" fill="#522A12"/>
<path d="M19.1842 14.4643H7.81579C7.53312 14.4643 7.26204 14.3627 7.06216 14.1818C6.86229 14.001 6.75 13.7557 6.75 13.5C6.75 13.2442 6.86229 12.999 7.06216 12.8181C7.26204 12.6373 7.53312 12.5357 7.81579 12.5357H19.1842C19.4669 12.5357 19.738 12.6373 19.9378 12.8181C20.1377 12.999 20.25 13.2442 20.25 13.5C20.25 13.7557 20.1377 14.001 19.9378 14.1818C19.738 14.3627 19.4669 14.4643 19.1842 14.4643Z" fill="#522A12"/>
</svg>
