<svg width="21" height="28" viewBox="0 0 21 28" fill="none" xmlns="http://www.w3.org/2000/svg">
<path d="M20 1V17.2347H14.0234V6.97653C14.0234 5.39146 14.6531 3.87129 15.7739 2.75047C16.8947 1.62966 18.4149 1 20 1Z" stroke="#522A12" stroke-width="2" stroke-linecap="round" stroke-linejoin="round"/>
<path d="M16.5215 17.1455H20.0004V24.6384C20.0004 25.0879 19.8218 25.519 19.504 25.8369C19.1861 26.1547 18.755 26.3333 18.3055 26.3333H18.2163C17.7668 26.3333 17.3358 26.1547 17.0179 25.8369C16.7001 25.519 16.5215 25.0879 16.5215 24.6384V17.1455Z" stroke="#522A12" stroke-width="2" stroke-linecap="round" stroke-linejoin="round"/>
<path d="M5.10339 26.3334C4.55926 26.3334 4.03742 26.1173 3.65266 25.7325C3.2679 25.3478 3.05176 24.8259 3.05176 24.2818L3.94378 13.1316H6.35221L7.24423 24.2818C7.24449 24.5589 7.18863 24.8332 7.07999 25.0881C6.97136 25.343 6.81219 25.5733 6.61213 25.765C6.41206 25.9567 6.17525 26.1059 5.91594 26.2036C5.65664 26.3013 5.38023 26.3455 5.10339 26.3334Z" stroke="#522A12" stroke-width="2" stroke-linecap="round" stroke-linejoin="round"/>
<path d="M9.11737 9.11746C8.97272 10.0905 8.48332 10.9792 7.73835 11.6216C6.99337 12.264 6.04241 12.6174 5.0587 12.6174C4.07499 12.6174 3.124 12.264 2.37902 11.6216C1.63405 10.9792 1.14465 10.0905 1 9.11746H9.11737Z" stroke="#522A12" stroke-width="2" stroke-linecap="round" stroke-linejoin="round"/>
<path d="M1 1.71365V9.11742" stroke="#522A12" stroke-width="2" stroke-linecap="round" stroke-linejoin="round"/>
<path d="M5.01367 1.71368V8.93904" stroke="#522A12" stroke-width="2" stroke-linecap="round" stroke-linejoin="round"/>
<path d="M9.11719 1.71368V9.11745" stroke="#522A12" stroke-width="2" stroke-linecap="round" stroke-linejoin="round"/>
</svg>
