<svg width="24" height="22" viewBox="0 0 24 22" fill="none" xmlns="http://www.w3.org/2000/svg">
<path d="M0 7.12289C0 12.1467 4.31356 17.0879 11.1162 21.3333C11.382 21.4866 11.7445 21.6517 11.9982 21.6517C12.252 21.6517 12.6145 21.4866 12.8682 21.3333C19.6829 17.0879 23.9965 12.1467 23.9965 7.12289C23.9965 2.94824 21.0603 0 17.1455 0C14.8981 0 13.0857 1.03778 11.9982 2.62979C10.9108 1.04955 9.08626 0 6.85096 0C2.93616 0 0 2.94824 0 7.12289ZM1.94536 7.12289C1.94536 3.98601 4.02357 1.89864 6.82678 1.89864C9.09837 1.89864 10.3912 3.27841 11.1766 4.45773C11.5028 4.92944 11.7083 5.05916 11.9982 5.05916C12.2882 5.05916 12.4695 4.91762 12.8198 4.45773C13.6415 3.30201 14.9102 1.89864 17.1696 1.89864C19.9729 1.89864 22.0511 3.98601 22.0511 7.12289C22.0511 11.5099 17.3025 16.2388 12.2399 19.5172C12.119 19.5998 12.0465 19.6588 11.9982 19.6588C11.9499 19.6588 11.8653 19.5998 11.7445 19.5172C6.69388 16.2388 1.94536 11.5099 1.94536 7.12289Z" fill="#522A12"/>
</svg>
