<svg width="28" height="27" viewBox="0 0 28 27" fill="none" xmlns="http://www.w3.org/2000/svg">
<path d="M11.6562 2.15505H16.7188C16.9425 2.15505 17.1571 2.06786 17.3154 1.91267C17.4736 1.75748 17.5625 1.547 17.5625 1.32752C17.5625 1.10805 17.4736 0.897567 17.3154 0.742376C17.1571 0.587185 16.9425 0.5 16.7188 0.5H11.6562C11.4325 0.5 11.2179 0.587185 11.0596 0.742376C10.9014 0.897567 10.8125 1.10805 10.8125 1.32752C10.8125 1.547 10.9014 1.75748 11.0596 1.91267C11.2179 2.06786 11.4325 2.15505 11.6562 2.15505Z" fill="#522A12"/>
<path d="M14.1875 3.81009C12.185 3.81009 10.2274 4.39249 8.56236 5.48364C6.89731 6.5748 5.59956 8.1257 4.83322 9.94022C4.06689 11.7547 3.86638 13.7514 4.25705 15.6777C4.64773 17.604 5.61204 19.3734 7.02805 20.7622C8.44405 22.1509 10.2482 23.0967 12.2122 23.4799C14.1763 23.863 16.2121 23.6664 18.0622 22.9148C19.9123 22.1632 21.4936 20.8904 22.6061 19.2574C23.7187 17.6243 24.3125 15.7044 24.3125 13.7404C24.3095 11.1076 23.2418 8.58354 21.3436 6.72189C19.4455 4.86025 16.8719 3.81307 14.1875 3.81009ZM18.9605 10.2295L14.7842 14.3255C14.7058 14.4024 14.6128 14.4633 14.5104 14.5049C14.4081 14.5465 14.2983 14.5679 14.1875 14.5679C14.0767 14.5679 13.967 14.5465 13.8646 14.5049C13.7623 14.4634 13.6692 14.4024 13.5909 14.3256C13.5125 14.2487 13.4504 14.1575 13.408 14.0571C13.3656 13.9567 13.3437 13.8491 13.3437 13.7404C13.3437 13.6317 13.3656 13.5241 13.4079 13.4237C13.4503 13.3233 13.5125 13.2321 13.5908 13.1552L17.7672 9.05919C17.8456 8.98235 17.9386 8.92139 18.0409 8.8798C18.1433 8.83821 18.253 8.8168 18.3638 8.8168C18.4746 8.8168 18.5843 8.8382 18.6867 8.87978C18.7891 8.92137 18.8821 8.98232 18.9605 9.05916C19.0388 9.136 19.101 9.22723 19.1434 9.32763C19.1858 9.42803 19.2076 9.53563 19.2076 9.64431C19.2076 9.75298 19.1858 9.86059 19.1434 9.96099C19.101 10.0614 19.0388 10.1526 18.9605 10.2295H18.9605Z" fill="#522A12"/>
</svg>
