<svg width="18" height="18" viewBox="0 0 18 18" fill="none" xmlns="http://www.w3.org/2000/svg">
<path fill-rule="evenodd" clip-rule="evenodd" d="M7.73681 6.9993L7.73036 6.99269C7.70453 6.96614 7.64244 6.90232 7.57575 6.85227C7.48381 6.78328 7.29184 6.66887 7.029 6.70262C6.76892 6.73602 6.61199 6.89219 6.53856 6.98398C6.48614 7.0495 6.44197 7.12715 6.42402 7.15869L6.41956 7.1665C6.11209 7.70094 5.20825 9.39283 5.20825 11.0387C5.20825 13.05 6.98966 14.5635 9.0359 14.5635C11.0822 14.5635 12.8636 13.05 12.8636 11.0387C12.8636 9.46854 11.7473 8.59394 11.4554 8.38967L11.4541 8.38877C11.4483 8.38471 11.4351 8.37548 11.4215 8.36652C11.4068 8.3568 11.3778 8.33811 11.3405 8.31925C11.2539 8.27551 11.1091 8.22412 10.9278 8.24861C10.7362 8.27447 10.6081 8.37118 10.5432 8.43102C10.4948 8.47568 10.4533 8.5278 10.4533 8.5278L9.8252 9.28435C9.75466 9.20167 9.6777 9.1122 9.59484 9.01667C9.13082 8.48164 8.48053 7.75679 7.73681 6.9993ZM9.31002 10.7435C9.43511 10.8988 9.62288 10.9897 9.82172 10.9912C10.0206 10.9927 10.2097 10.9047 10.337 10.7513L10.397 10.6791C10.4063 10.6679 10.3914 10.6858 10.4008 10.6745L11.0873 9.84756C11.3112 10.1145 11.5349 10.5134 11.5349 11.0387C11.5349 12.1843 10.4838 13.2296 9.0359 13.2296C7.58801 13.2296 6.53687 12.1843 6.53687 11.0387C6.53687 10.1142 6.9307 9.10301 7.26002 8.4223C7.78393 8.97461 8.24247 9.48872 8.5929 9.89274C8.81852 10.1528 8.99878 10.3668 9.12225 10.5151C9.18395 10.5893 9.23136 10.6469 9.26315 10.6859L9.29895 10.7297L9.30761 10.7405L9.31002 10.7435Z" fill="#522A12"/>
<path fill-rule="evenodd" clip-rule="evenodd" d="M6.8234 0.000206193C6.37844 -0.00711805 6.04098 0.181483 5.766 0.438182C5.53275 0.655932 5.3029 0.963705 5.06353 1.28425L5.0341 1.32365C3.68338 3.13146 1.78564 6.37616 1.78564 10.3771C1.78564 14.4788 4.95496 17.8571 8.9285 17.8571C12.9021 17.8571 16.0714 14.4788 16.0714 10.3771C16.0714 7.69496 14.9145 5.28657 14.0042 3.87375L13.9872 3.84712C13.9058 3.72071 13.806 3.56542 13.7009 3.44899C13.571 3.3051 13.3342 3.10871 12.9788 3.12204C12.6163 3.13565 12.3939 3.35887 12.2786 3.50905C12.1823 3.63459 12.0928 3.79958 12.0181 3.93721L11.4588 4.96663C11.3923 5.08897 11.3371 5.19051 11.2876 5.27772C11.2288 5.19657 11.1626 5.10183 11.0831 4.98767L8.60138 1.42892C8.35207 1.07128 8.11935 0.737421 7.88646 0.499924C7.61972 0.227903 7.28245 0.00776231 6.8234 0.000206193ZM6.09689 2.12415C6.37699 1.74928 6.53547 1.54135 6.67069 1.41513C6.7645 1.32754 6.79031 1.3321 6.79939 1.33371L6.80162 1.334C6.81301 1.33419 6.81529 1.33507 6.82304 1.33904C6.83751 1.34646 6.87468 1.3695 6.93972 1.43582C7.0847 1.58367 7.2537 1.82216 7.54098 2.23413L10.0181 5.78634C10.1811 6.02027 10.3434 6.25317 10.5005 6.41967C10.6719 6.6014 10.9578 6.83567 11.3728 6.81243C11.7879 6.7892 12.046 6.52448 12.1963 6.32474C12.3339 6.14174 12.4695 5.89218 12.6056 5.6415L13.0407 4.84069C13.8454 6.1585 14.7428 8.19269 14.7428 10.3771C14.7428 13.801 12.111 16.5232 8.9285 16.5232C5.74604 16.5232 3.11425 13.801 3.11425 10.3771C3.11425 6.79083 4.82406 3.82772 6.09689 2.12415Z" fill="#522A12"/>
</svg>
