<svg width="14" height="14" viewBox="0 0 14 14" fill="none" xmlns="http://www.w3.org/2000/svg">
<path d="M7 0.206787C5.66498 0.206787 4.35994 0.595055 3.2499 1.32249C2.13987 2.04993 1.27471 3.08386 0.763816 4.29354C0.252925 5.50322 0.119252 6.83432 0.379702 8.11852C0.640153 9.40271 1.28303 10.5823 2.22703 11.5082C3.17104 12.434 4.37377 13.0645 5.68314 13.32C6.99252 13.5754 8.34972 13.4443 9.58312 12.9432C10.8165 12.4422 11.8707 11.5936 12.6124 10.505C13.3541 9.41628 13.75 8.13633 13.75 6.82698C13.748 5.0718 13.0362 3.38909 11.7707 2.14799C10.5053 0.906892 8.78959 0.208772 7 0.206787ZM10.182 4.48637L7.39778 7.21707C7.34555 7.2683 7.28354 7.30894 7.21529 7.33667C7.14704 7.3644 7.0739 7.37867 7.00003 7.37867C6.92616 7.37868 6.85301 7.36441 6.78476 7.33669C6.71651 7.30897 6.6545 7.26833 6.60226 7.2171C6.55003 7.16588 6.50859 7.10506 6.48032 7.03813C6.45205 6.97119 6.43749 6.89945 6.43749 6.827C6.43749 6.75455 6.45203 6.68281 6.4803 6.61588C6.50857 6.54894 6.55 6.48812 6.60223 6.43689L9.38647 3.70619C9.43871 3.65496 9.50071 3.61432 9.56896 3.58659C9.63721 3.55887 9.71035 3.5446 9.78422 3.54459C9.85809 3.54459 9.93123 3.55886 9.99948 3.58658C10.0677 3.61431 10.1297 3.65494 10.182 3.70617C10.2342 3.7574 10.2756 3.81821 10.3039 3.88515C10.3322 3.95208 10.3467 4.02382 10.3467 4.09627C10.3467 4.16871 10.3322 4.24045 10.3039 4.30739C10.2757 4.37432 10.2342 4.43514 10.182 4.48637H10.182Z" fill="#522A12"/>
</svg>
