<svg width="30" height="23" viewBox="0 0 30 23" fill="none" xmlns="http://www.w3.org/2000/svg">
<g clip-path="url(#clip0_2010_986)">
<path d="M7.33203 0.0280457H29.3296V22.0255H7.33203V0.0280457Z" fill="#1A5C35"/>
<path d="M0 0.0280457H7.33252V22.0255H0V0.0280457Z" fill="#F5F8FB"/>
<path fill-rule="evenodd" clip-rule="evenodd" d="M24.7479 13.4654C23.6566 14.3786 22.2507 14.9284 20.7163 14.9284C17.2447 14.9284 14.4304 12.1141 14.4304 8.64244C14.4304 7.10812 14.9801 5.70218 15.8933 4.61086C13.5497 5.65581 11.916 8.006 11.916 10.7378C11.916 14.4408 14.9179 17.4427 18.621 17.4427C21.3528 17.4427 23.703 15.809 24.7479 13.4654Z" fill="#F5F8FB"/>
<path d="M21.9999 4.61086L22.7272 6.3595L24.615 6.51084L23.1767 7.74291L23.6161 9.58509L21.9999 8.5979L20.3837 9.58509L20.8231 7.74291L19.3848 6.51084L21.2726 6.3595L21.9999 4.61086Z" fill="#F5F8FB"/>
</g>
<defs>
<clipPath id="clip0_2010_986">
<rect width="29.33" height="21.9975" fill="white" transform="translate(0 0.0280457)"/>
</clipPath>
</defs>
</svg>
